<svg xmlns="http://www.w3.org/2000/svg" viewBox="0 0 50 40" width="50" height="40">
  <path d="m39.744 8.795-15.418-4.18a4.797 4.797 0 0 0-2.486 0L6.422 8.795a3.211 3.211 0 0 0-2.339 3.058v19.858a3.166 3.166 0 0 0 2.126 2.99l16.057 5.587a4.681 4.681 0 0 0 1.6.26 4.494 4.494 0 0 0 1.65-.308l14.529-5.54a3.298 3.298 0 0 0 2.038-2.954V11.853a3.202 3.202 0 0 0-2.339-3.058zM22.668 7.673a1.6 1.6 0 0 1 .83 0l9.748 2.642a.397.397 0 0 1 0 .763l-9.284 2.67a.396.396 0 0 1-.21 0l-10.509-2.757a.396.396 0 0 1 0-.764l9.424-2.554h.001zM7.516 31.803a.397.397 0 0 1-.266-.374V13.206a.398.398 0 0 1 .321-.39c.06-.012.12-.01.179.004L22 16.56a.396.396 0 0 1 .296.383v19.443a.391.391 0 0 1-.34.386.4.4 0 0 1-.186-.017L7.516 31.803z" fill="#E67700"/>
</svg>
